<svg width="24" height="24" viewBox="0 0 24 24" fill="none" xmlns="http://www.w3.org/2000/svg">
<path d="M12 0C7.60714 1.98536 4.78821 2.9175 0 3.42857C0 7.58518 0.282321 10.5729 1.35482 13.313C2.23184 15.5474 3.53105 17.592 5.18143 19.335C7.83857 22.1561 10.762 23.6421 12 24C13.238 23.6421 16.1614 22.1561 18.8186 19.335C20.469 17.592 21.7682 15.5474 22.6452 13.313C23.7177 10.5729 24 7.58518 24 3.42857C19.2118 2.9175 16.3929 1.98536 12 0Z" fill="#18181C"/>
<path d="M11.947 20.6482L5.60112 9.70026H9.76972L11.997 13.5294L16.5701 5.60157H20.6686L11.947 20.6482Z" fill="#41B883"/>
<path d="M11.997 13.5611L7.36718 5.60157H10.6006L11.997 7.97859L13.3636 5.60157H16.5885L11.997 13.5611Z" fill="#35495E"/>
</svg>
